<svg id="Layer_1" data-name="Layer 1" xmlns="http://www.w3.org/2000/svg" viewBox="0 0 23.9 23.9"><defs><style>.cls-1{fill:#fff;}</style></defs><title>2018.08_이력서</title><circle cx="11.95" cy="11.95" r="11.95"/><path class="cls-1" d="M15.83,7.53a1,1,0,0,0,1.09-1.12,1.1,1.1,0,0,0-2.2,0A1.05,1.05,0,0,0,15.83,7.53Zm-1.25,11s2.47,0,2.47,0c.16-1.07.21-2.13.26-3.1.87-.12,1.52-.27,1.46-.53l-.33-1.62c-.55-2.7-1-5.05-2.67-5.05s-2,2.36-2.57,5.05l-.33,1.62c-.06.26.51.43,1.46.53C14.37,16.36,14.43,17.42,14.58,18.49ZM11.43,5.34c-.55,0-.55,0-.55.55V18c0,.55,0,.55.55.55s.55,0,.55-.55V5.89C12,5.34,12,5.34,11.43,5.34Z"/><path class="cls-1" d="M7.05,10.88a.74.74,0,0,0,.76-.79.72.72,0,0,0-.76-.75.72.72,0,0,0-.78.75A.74.74,0,0,0,7.05,10.88Z"/><path class="cls-1" d="M6,18.55s2,0,2,0c.11-1.24.14-2.47.18-3.63.42-.07.72-.14.72-.29l-.14-1.75C8.76,12,8.19,11.34,7,11.34a1.54,1.54,0,0,0-1.74,1.54l-.13,1.75c0,.14.25.24.71.29C5.87,16.08,5.91,17.31,6,18.55Z"/></svg>