<?xml version="1.0" encoding="utf-8"?>
<!-- Generator: Adobe Illustrator 22.1.0, SVG Export Plug-In . SVG Version: 6.00 Build 0)  -->
<svg version="1.1" id="Layer_1" xmlns="http://www.w3.org/2000/svg" xmlns:xlink="http://www.w3.org/1999/xlink" x="0px" y="0px"
	 viewBox="0 0 103.9 103.9" style="enable-background:new 0 0 103.9 103.9;" xml:space="preserve">
<style type="text/css">
	.st0{fill:#D3D3D3;}
	.st1{fill:#E2E2E2;}
	.st2{fill:#C1C1C1;}
	.st3{fill:#FF7300;}
	.st4{fill:#707070;}
	.st5{fill:#FFFFFF;}
	.st6{fill:none;stroke:#000000;stroke-width:30;stroke-miterlimit:10;}
	.st7{fill:none;stroke:#000000;stroke-width:22;stroke-miterlimit:10;}
	.st8{fill:none;stroke:#000000;stroke-width:26;stroke-linecap:round;stroke-miterlimit:10;}
</style>
<g>
	<circle cx="51.9" cy="51.9" r="51.9"/>
	<path class="st5" d="M76.7,55.3c0,2-1.7,3.7-3.7,3.7H59v14c0,2-1.7,3.7-3.7,3.7h-6.6c-2,0-3.7-1.7-3.7-3.7V59h-14
		c-2,0-3.7-1.7-3.7-3.7v-6.6c0-2,1.7-3.7,3.7-3.7h14v-14c0-2,1.7-3.7,3.7-3.7h6.6c2,0,3.7,1.7,3.7,3.7v14h14c2,0,3.7,1.7,3.7,3.7
		V55.3z"/>
</g>
</svg>
