<svg id="Layer_1" data-name="Layer 1" xmlns="http://www.w3.org/2000/svg" viewBox="0 0 23.9 23.9"><defs><style>.cls-1{fill:#fff;}</style></defs><title>2018.08_이력서</title><circle cx="11.95" cy="11.95" r="11.95"/><path class="cls-1" d="M5.11,11.72l-.79.92a11.7,11.7,0,0,0,.39,1.83c.1,0,.66.65,1,.78s1.06,1.17,1.06,1.17S8.08,17.6,8.53,17.9s2,.63,2.13.76a20.2,20.2,0,0,0,2.75.13S15.06,18,15.06,18a15.26,15.26,0,0,0,1.88-1.39c.07-.2.5-1,.5-1s.13-.51.33-.51S18.92,15,18.92,15s.8-1.45.8-1.55a3.72,3.72,0,0,0-.14-1c-.09-.18-.61.06-.47-.36s-.52-.05-.62-.41-.19-1.42-.19-1.42A25.41,25.41,0,0,1,17.24,8c0-.26-.66-.82-.83-1.12a13.3,13.3,0,0,0-1.65-1.45l-1.89-.17L11.5,5.11l-1.66.13-1.31.63L7.61,7.26a8.48,8.48,0,0,0-1,.56c0,.06-.47.66-.5,1a12.89,12.89,0,0,1-.56,1.72C5.47,10.63,5.11,11.72,5.11,11.72Z"/><path class="cls-1" d="M11.94,19.38a6.83,6.83,0,0,1-3.79-1.14,7.29,7.29,0,0,1-2.4-2.65h-.1a2.08,2.08,0,0,1-1.78-1.76,2.63,2.63,0,0,1,0-1.53,1.48,1.48,0,0,1,.94-1A7.56,7.56,0,0,1,7,6.63a6.86,6.86,0,0,1,9.91,0A7.51,7.51,0,0,1,19,11.34a1.47,1.47,0,0,1,1,1,2.81,2.81,0,0,1-.7,2.85,1.5,1.5,0,0,1-1.16.43,7.32,7.32,0,0,1-2.39,2.64A6.81,6.81,0,0,1,11.94,19.38ZM6.2,14.48l.19.41A6.55,6.55,0,0,0,8.64,17.5a6,6,0,0,0,3.3,1,5.92,5.92,0,0,0,3.3-1,6.45,6.45,0,0,0,2.25-2.62l.19-.41.41.21.08,0a.62.62,0,0,0,.51-.19,1.88,1.88,0,0,0,.49-.89,1.81,1.81,0,0,0,0-1c0-.13-.16-.36-.37-.41h-.14l-.49.07v-.5a6.68,6.68,0,0,0-1.88-4.51,6,6,0,0,0-8.65,0,6.71,6.71,0,0,0-1.88,4.51v.48l-.48-.05H5.12c-.21.05-.32.28-.37.41a1.81,1.81,0,0,0,0,1c.15.59.6,1.18,1,1.08l.07,0Z"/><path d="M13.19,16.42a1.42,1.42,0,0,0-.26-.51,1.45,1.45,0,0,0-1.17-.48,1.45,1.45,0,0,0-1.18.5,1.41,1.41,0,0,0-.25.49l-.64-.13a2,2,0,0,1,.38-.76,2,2,0,0,1,1.69-.76,2,2,0,0,1,1.69.76,2,2,0,0,1,.38.76Z"/><circle cx="9.85" cy="11.03" r="0.92"/><circle cx="14.05" cy="11.03" r="0.92"/><path d="M13.21,15.89a.42.42,0,0,1-.31-.71L15,12.87a.43.43,0,0,1,.61,0,.44.44,0,0,1,0,.61l-2.13,2.31A.44.44,0,0,1,13.21,15.89Z"/></svg>