<?xml version="1.0" encoding="utf-8"?>
<!-- Generator: Adobe Illustrator 22.1.0, SVG Export Plug-In . SVG Version: 6.00 Build 0)  -->
<svg version="1.1" id="Layer_1" xmlns="http://www.w3.org/2000/svg" xmlns:xlink="http://www.w3.org/1999/xlink" x="0px" y="0px"
	 viewBox="0 0 103.9 103.9" style="enable-background:new 0 0 103.9 103.9;" xml:space="preserve">
<style type="text/css">
	.st0{fill:#D3D3D3;}
	.st1{fill:#E2E2E2;}
	.st2{fill:#C1C1C1;}
	.st3{fill:#FF7300;}
	.st4{fill:#707070;}
	.st5{fill:#FFFFFF;}
	.st6{fill:none;stroke:#000000;stroke-width:30;stroke-miterlimit:10;}
	.st7{fill:none;stroke:#000000;stroke-width:22;stroke-miterlimit:10;}
	.st8{fill:none;stroke:#000000;stroke-width:26;stroke-linecap:round;stroke-miterlimit:10;}
</style>
<circle cx="51.9" cy="51.9" r="51.9"/>
<path d="M76.6,22.8H27.3c-2.5,0-4.5,2-4.5,4.5v49.3c0,2.5,2,4.5,4.5,4.5h49.3c2.5,0,4.5-2,4.5-4.5V27.3
	C81.1,24.8,79.1,22.8,76.6,22.8z M70.7,54.4c0,1.6-1.3,2.8-2.8,2.8H57.3v10.6c0,1.6-1.3,2.8-2.8,2.8h-5c-1.6,0-2.8-1.3-2.8-2.8V57.3
	H36c-1.6,0-2.8-1.3-2.8-2.8v-5c0-1.6,1.3-2.8,2.8-2.8h10.6V36c0-1.6,1.3-2.8,2.8-2.8h5c1.6,0,2.8,1.3,2.8,2.8v10.6h10.6
	c1.6,0,2.8,1.3,2.8,2.8V54.4z"/>
<g>
	<g>
		<path class="st5" d="M51.9,84.2c-5.8,0-11.5-1.7-16.5-5c-4.3-2.9-7.9-6.8-10.4-11.5c-0.2,0-0.3,0-0.5,0c-3.4,0-6.6-3.1-7.7-7.7
			c-0.6-2.3-0.5-4.7,0.2-6.6c0.8-2.1,2.3-3.6,4.1-4.2c0.6-7.8,3.8-15,9.2-20.5c5.8-5.9,13.4-9.2,21.5-9.2c8.1,0,15.8,3.3,21.6,9.2
			c5.4,5.5,8.6,12.7,9.2,20.5c1.9,0.5,3.5,2,4.2,4.2c0.7,2,0.8,4.3,0.2,6.6c-0.6,2.3-1.7,4.4-3.3,5.8c-1.5,1.4-3.3,2-5,1.9
			c-2.5,4.7-6.1,8.6-10.4,11.5C63.4,82.5,57.7,84.2,51.9,84.2z M26.9,62.9l0.8,1.7c2.2,4.6,5.6,8.6,9.8,11.3
			c4.3,2.8,9.2,4.3,14.3,4.3c5.1,0,10.1-1.5,14.3-4.4c4.2-2.8,7.6-6.7,9.8-11.4l0.9-1.8l1.8,0.9c0.1,0.1,0.2,0.1,0.3,0.1
			c0.9,0.2,1.8-0.4,2.2-0.8c1-0.9,1.7-2.3,2.1-3.8c0.4-1.6,0.3-3.2-0.1-4.4c-0.2-0.6-0.7-1.6-1.6-1.8l0,0c-0.2,0-0.4-0.1-0.6,0
			l-2.1,0.3l-0.1-2.2c-0.2-7.4-3.1-14.4-8.2-19.6c-5.1-5.2-11.7-8-18.8-8c-7.1,0-13.7,2.9-18.8,8c-5.1,5.2-8,12.2-8.2,19.6l-0.1,2.1
			L22.8,53c-0.2,0-0.4,0-0.5,0c-0.9,0.2-1.4,1.2-1.6,1.8c-0.4,1.2-0.5,2.8-0.1,4.4c0.6,2.6,2.6,5.1,4.4,4.7c0.1,0,0.2-0.1,0.3-0.1
			L26.9,62.9z"/>
	</g>
	<g>
		<path class="st5" d="M57.3,71.4c0,0-0.3-1.1-1.1-2.2C55,67.7,53.3,67,51.1,67c-2.2,0-4,0.7-5.1,2.2c-0.8,1.1-1.1,2.1-1.1,2.1
			l-2.8-0.6c0-0.2,0.4-1.7,1.6-3.3c1.2-1.5,3.4-3.3,7.3-3.3s6.2,1.8,7.3,3.3c1.3,1.6,1.6,3.2,1.6,3.3L57.3,71.4z"/>
	</g>
	<g>
		<circle class="st5" cx="44" cy="54.3" r="2.3"/>
	</g>
	<g>
		<circle class="st5" cx="58.3" cy="54.3" r="2.3"/>
	</g>
	<g>
		<path class="st5" d="M57.2,69.1c-0.4,0-0.8-0.1-1.1-0.4c-0.7-0.6-0.7-1.7-0.1-2.4l8.3-9c0.6-0.7,1.7-0.7,2.4-0.1
			c0.7,0.6,0.7,1.7,0.1,2.4l-8.3,9C58.1,68.9,57.7,69.1,57.2,69.1z"/>
	</g>
	<g>
		<path class="st5" d="M53.1,36.7l0.8,4.7c0.2,1.1-0.6,2.1-1.6,2.2S50.2,43.1,50,42c0-0.2,0-0.4,0-0.6l0.8-4.7
			c0.1-0.7,0.7-1.1,1.4-1C52.6,35.8,53,36.2,53.1,36.7z"/>
	</g>
	<g>
		<path class="st5" d="M43.4,35.9l-2.8,3.8c-0.6,0.9-1.9,1.1-2.7,0.4c-0.9-0.6-1.1-1.9-0.4-2.7c0.1-0.2,0.3-0.3,0.4-0.4l3.8-2.8
			c0.5-0.4,1.3-0.3,1.7,0.3C43.7,34.9,43.7,35.5,43.4,35.9z"/>
	</g>
	<g>
		<path class="st5" d="M62,34.2l3.8,2.8c0.9,0.6,1.1,1.9,0.4,2.7c-0.6,0.9-1.9,1.1-2.7,0.4c-0.2-0.1-0.3-0.3-0.4-0.4l-2.8-3.8
			c-0.4-0.5-0.3-1.3,0.3-1.7C61.1,33.9,61.6,33.9,62,34.2z"/>
	</g>
</g>
</svg>
