<?xml version="1.0" encoding="utf-8"?>
<!-- Generator: Adobe Illustrator 22.1.0, SVG Export Plug-In . SVG Version: 6.00 Build 0)  -->
<svg version="1.1" id="Layer_1" xmlns="http://www.w3.org/2000/svg" xmlns:xlink="http://www.w3.org/1999/xlink" x="0px" y="0px"
	 viewBox="0 0 103.9 103.9" style="enable-background:new 0 0 103.9 103.9;" xml:space="preserve">
<style type="text/css">
	.st0{fill:#D3D3D3;}
	.st1{fill:#E2E2E2;}
	.st2{fill:#C1C1C1;}
	.st3{fill:#FF7300;}
	.st4{fill:#707070;}
	.st5{fill:#FFFFFF;}
	.st6{fill:none;stroke:#000000;stroke-width:30;stroke-miterlimit:10;}
	.st7{fill:none;stroke:#000000;stroke-width:22;stroke-miterlimit:10;}
	.st8{fill:none;stroke:#000000;stroke-width:26;stroke-linecap:round;stroke-miterlimit:10;}
</style>
<g>
	<circle cx="51.9" cy="51.9" r="51.9"/>
	<path class="st5" d="M32.6,33.1c2.8,0,4.7-1.9,4.7-4.8c0-2.8-1.9-4.6-4.7-4.6c-2.9,0-4.8,1.8-4.8,4.6
		C27.9,31.1,29.8,33.1,32.6,33.1z M26.3,80.1c0,0.1,12.5,0.1,12.5,0c0.7-7.6,0.9-15.1,1.1-22.3c2.6-0.4,4.4-0.9,4.4-1.8l-0.8-10.8
		c-0.4-5.7-3.9-9.4-11.2-9.4c-7,0-10.3,3.8-10.7,9.4l-0.8,10.8c0,0.8,1.6,1.5,4.4,1.8C25.4,65,25.6,72.5,26.3,80.1z M70.4,33.1
		c2.8,0,4.7-1.9,4.7-4.8c0-2.8-1.9-4.6-4.7-4.6c-2.9,0-4.8,1.8-4.8,4.6C65.6,31.1,67.5,33.1,70.4,33.1z M65,80.1
		c0,0.1,10.6,0.1,10.6,0c0.7-4.6,0.9-9.2,1.1-13.3c3.7-0.5,6.5-1.2,6.3-2.3l-1.4-7C79.2,46,77.4,35.9,70.1,35.9
		c-7,0-8.7,10.1-11,21.7l-1.4,7c-0.2,1.1,2.2,1.8,6.3,2.3C64.1,71,64.3,75.6,65,80.1z M51.5,23.6c-2.4,0-2.4,0-2.4,2.4v51.9
		c0,2.4,0,2.4,2.4,2.4c2.4,0,2.4,0,2.4-2.4V26C53.8,23.6,53.8,23.6,51.5,23.6z"/>
</g>
</svg>
