<svg id="Layer_1" data-name="Layer 1" xmlns="http://www.w3.org/2000/svg" viewBox="0 0 23.9 23.9"><defs><style>.cls-1{fill:#fff;}</style></defs><title>2018.08_이력서</title><circle cx="11.95" cy="11.95" r="11.95"/><path class="cls-1" d="M7.51,7.61A1,1,0,0,0,8.58,6.5,1,1,0,0,0,7.51,5.44,1,1,0,0,0,6.41,6.5,1,1,0,0,0,7.51,7.61ZM6.05,18.44s2.88,0,2.88,0c.16-1.75.21-3.48.26-5.12.6-.1,1-.21,1-.41L10,10.43A2.25,2.25,0,0,0,7.44,8.26,2.18,2.18,0,0,0,5,10.43L4.8,12.91c0,.19.35.33,1,.41C5.85,15,5.9,16.69,6.05,18.44ZM16.19,7.61A1,1,0,0,0,17.27,6.5a1.09,1.09,0,0,0-2.17,0A1,1,0,0,0,16.19,7.61ZM15,18.44s2.44,0,2.44,0c.16-1.05.2-2.1.26-3.06.86-.12,1.5-.27,1.44-.52l-.32-1.61c-.55-2.67-1-5-2.65-5s-2,2.33-2.54,5l-.33,1.61c0,.25.51.42,1.45.52A28,28,0,0,0,15,18.44Zm-3.12-13c-.54,0-.54,0-.54.54V17.92c0,.54,0,.54.54.54s.54,0,.54-.54V6C12.38,5.44,12.38,5.44,11.84,5.44Z"/></svg>