<?xml version="1.0" encoding="utf-8"?>
<!-- Generator: Adobe Illustrator 22.1.0, SVG Export Plug-In . SVG Version: 6.00 Build 0)  -->
<svg version="1.1" id="Layer_1" xmlns="http://www.w3.org/2000/svg" xmlns:xlink="http://www.w3.org/1999/xlink" x="0px" y="0px"
	 viewBox="0 0 103.9 103.9" style="enable-background:new 0 0 103.9 103.9;" xml:space="preserve">
<style type="text/css">
	.st0{fill:#D3D3D3;}
	.st1{fill:#E2E2E2;}
	.st2{fill:#C1C1C1;}
	.st3{fill:#FF7300;}
	.st4{fill:#707070;}
	.st5{fill:#FFFFFF;}
	.st6{fill:none;stroke:#000000;stroke-width:30;stroke-miterlimit:10;}
	.st7{fill:none;stroke:#000000;stroke-width:22;stroke-miterlimit:10;}
	.st8{fill:none;stroke:#000000;stroke-width:26;stroke-linecap:round;stroke-miterlimit:10;}
</style>
<g>
	<circle cx="51.9" cy="51.9" r="51.9"/>
	<g>
		<path class="st5" d="M68.8,32.7c2.8,0,4.7-2,4.7-4.9c0-2.8-1.9-4.7-4.7-4.7c-2.9,0-4.8,1.9-4.8,4.7C64,30.8,65.9,32.7,68.8,32.7z
			 M63.4,80.3c0,0.1,10.7,0.1,10.7,0c0.7-4.6,0.9-9.3,1.1-13.4c3.8-0.5,6.6-1.2,6.3-2.3l-1.4-7.1c-2.4-11.7-4.2-21.9-11.6-21.9
			c-7.1,0-8.8,10.3-11.2,21.9l-1.4,7.1c-0.2,1.1,2.2,1.9,6.3,2.3C62.5,71.1,62.7,75.7,63.4,80.3z M49.7,23.2c-2.4,0-2.4,0-2.4,2.4
			V78c0,2.4,0,2.4,2.4,2.4s2.4,0,2.4-2.4V25.6C52.1,23.2,52.1,23.2,49.7,23.2z"/>
		<g>
			<path class="st5" d="M30.6,47.3c2,0,3.3-1.4,3.3-3.4c0-2-1.3-3.3-3.3-3.3c-2,0-3.4,1.3-3.4,3.3C27.3,45.9,28.6,47.3,30.6,47.3z"
				/>
			<path class="st5" d="M26.1,80.6c0,0.1,8.9,0.1,8.9,0c0.5-5.4,0.6-10.7,0.8-15.8c1.8-0.3,3.1-0.6,3.1-1.3L38.3,56
				c-0.3-4-2.7-6.7-7.9-6.7c-5,0-7.3,2.7-7.6,6.7l-0.6,7.6c0,0.6,1.1,1,3.1,1.3C25.5,69.9,25.7,75.2,26.1,80.6z"/>
		</g>
	</g>
</g>
</svg>
