<?xml version="1.0" encoding="utf-8"?>
<!-- Generator: Adobe Illustrator 22.1.0, SVG Export Plug-In . SVG Version: 6.00 Build 0)  -->
<svg version="1.1" id="Layer_1" xmlns="http://www.w3.org/2000/svg" xmlns:xlink="http://www.w3.org/1999/xlink" x="0px" y="0px"
	 viewBox="0 0 103.9 103.9" style="enable-background:new 0 0 103.9 103.9;" xml:space="preserve">
<style type="text/css">
	.st0{fill:#231F20;}
	.st1{fill:#303030;}
	.st2{fill:#2D2E2D;}
	.st3{fill:#010101;}
	.st4{fill:#BABABB;}
	.st5{fill:#D3D3D3;}
	.st6{fill:#E2E2E2;}
	.st7{fill:#969696;}
	.st8{fill:#BABABA;}
	.st9{fill:#D6D6D6;}
	.st10{fill:#A5A5A5;}
	.st11{fill:#282828;}
	.st12{fill:#C1C1C1;}
	.st13{fill:#707070;}
	.st14{fill:#D1D1D1;}
	.st15{fill:#FF7300;}
	.st16{fill:#FFFFFF;}
	.st17{fill:none;stroke:#000000;stroke-width:30;stroke-miterlimit:10;}
	.st18{fill:none;stroke:#000000;stroke-width:22;stroke-miterlimit:10;}
	.st19{fill:none;stroke:#000000;stroke-width:26;stroke-linecap:round;stroke-miterlimit:10;}
</style>
<g>
	<circle cx="51.9" cy="51.9" r="51.9"/>
	<g>
		<path class="st16" d="M36.3,35.7c2.4,0,4-1.6,4-4.1c0-2.4-1.6-3.9-4-3.9c-2.5,0-4.1,1.6-4.1,3.9C32.3,34.1,33.9,35.7,36.3,35.7z
			 M30.9,75.9c0,0.1,10.7,0.1,10.7,0c0.6-6.5,0.8-12.9,1-19c2.2-0.4,3.8-0.8,3.7-1.5l-0.7-9.2c-0.4-4.8-3.3-8-9.5-8
			c-6,0-8.8,3.2-9.1,8l-0.7,9.2c0,0.7,1.3,1.2,3.7,1.5C30.2,63,30.4,69.4,30.9,75.9z M68.5,35.7c2.4,0,4-1.6,4-4.1
			c0-2.4-1.6-3.9-4-3.9c-2.5,0-4.1,1.6-4.1,3.9C64.5,34.1,66.1,35.7,68.5,35.7z M63.9,75.9c0,0.1,9.1,0.1,9.1,0
			c0.6-3.9,0.8-7.8,1-11.3c3.2-0.4,5.6-1,5.4-1.9l-1.2-6c-2-9.9-3.6-18.5-9.8-18.5c-6,0-7.4,8.7-9.4,18.5l-1.2,6
			c-0.2,0.9,1.9,1.6,5.4,1.9C63.2,68.1,63.4,72,63.9,75.9z M52.4,27.7c-2,0-2,0-2,2V74c0,2,0,2,2,2c2,0,2,0,2-2V29.7
			C54.4,27.7,54.4,27.7,52.4,27.7z"/>
		<g>
			<path class="st16" d="M23.4,48c1.7,0,2.8-1.2,2.8-2.9c0-1.7-1.1-2.8-2.8-2.8c-1.7,0-2.8,1.1-2.8,2.8C20.5,46.8,21.7,48,23.4,48z"
				/>
			<path class="st16" d="M19.6,76.1c0,0.1,7.5,0.1,7.5,0c0.4-4.5,0.5-9.1,0.7-13.3c1.6-0.3,2.7-0.5,2.6-1.1l-0.5-6.4
				c-0.3-3.4-2.3-5.6-6.7-5.6c-4.2,0-6.1,2.3-6.4,5.6l-0.5,6.4c0,0.5,0.9,0.9,2.6,1.1C19.1,67.1,19.2,71.6,19.6,76.1z"/>
		</g>
		<g>
			<path class="st16" d="M80.5,48c1.7,0,2.8-1.2,2.8-2.9c0-1.7-1.1-2.8-2.8-2.8c-1.7,0-2.8,1.1-2.8,2.8C77.7,46.8,78.8,48,80.5,48z"
				/>
			<path class="st16" d="M76.8,76.1c0,0.1,7.5,0.1,7.5,0c0.4-4.5,0.5-9.1,0.7-13.3c1.6-0.3,2.7-0.5,2.6-1.1l-0.5-6.4
				c-0.3-3.4-2.3-5.6-6.7-5.6c-4.2,0-6.1,2.3-6.4,5.6l-0.5,6.4c0,0.5,0.9,0.9,2.6,1.1C76.2,67.1,76.4,71.6,76.8,76.1z"/>
		</g>
	</g>
</g>
</svg>
