<svg id="Layer_1" data-name="Layer 1" xmlns="http://www.w3.org/2000/svg" viewBox="0 0 23.9 23.9"><defs><style>.cls-1{fill:#fff;}</style></defs><title>2018.08_이력서</title><circle cx="11.95" cy="11.95" r="11.95"/><path class="cls-1" d="M8.36,8.22a.88.88,0,0,0,.92-.94.86.86,0,0,0-.92-.91.87.87,0,0,0-.93.91A.88.88,0,0,0,8.36,8.22ZM7.12,17.46s2.45,0,2.45,0c.14-1.49.18-3,.23-4.37.51-.08.87-.17.86-.35l-.16-2.11A1.91,1.91,0,0,0,8.31,8.78,1.87,1.87,0,0,0,6.2,10.63l-.15,2.11c0,.17.3.29.86.35C6.94,14.49,7,16,7.12,17.46Zm8.65-9.24a.88.88,0,0,0,.92-.94.93.93,0,0,0-1.86,0A.89.89,0,0,0,15.77,8.22Zm-1.06,9.24s2.09,0,2.09,0c.14-.89.17-1.79.22-2.61.73-.1,1.28-.23,1.23-.44L18,13c-.46-2.28-.82-4.26-2.26-4.26s-1.7,2-2.16,4.26l-.28,1.37c0,.21.43.36,1.23.44C14.54,15.67,14.58,16.57,14.71,17.46ZM12.06,6.37c-.47,0-.47,0-.47.46V17c0,.46,0,.46.47.46s.46,0,.46-.46V6.83C12.52,6.37,12.52,6.37,12.06,6.37Z"/><path class="cls-1" d="M5.38,11A.61.61,0,0,0,6,10.38a.6.6,0,0,0-.64-.63.61.61,0,0,0-.66.63A.62.62,0,0,0,5.38,11Z"/><path class="cls-1" d="M4.51,17.52s1.72,0,1.72,0c.1-1,.12-2.08.15-3.06.36-.06.61-.13.61-.25l-.11-1.48a1.34,1.34,0,0,0-1.54-1.3,1.3,1.3,0,0,0-1.47,1.3l-.11,1.48c0,.12.21.2.6.25C4.39,15.44,4.42,16.48,4.51,17.52Z"/><path class="cls-1" d="M18.54,11a.61.61,0,0,0,.64-.66.65.65,0,0,0-1.3,0A.62.62,0,0,0,18.54,11Z"/><path class="cls-1" d="M17.67,17.52s1.72,0,1.72,0c.09-1,.12-2.08.15-3.06.36-.06.61-.13.6-.25L20,12.73a1.33,1.33,0,0,0-1.53-1.3A1.31,1.31,0,0,0,17,12.73l-.11,1.48c0,.12.22.2.61.25C17.54,15.44,17.58,16.48,17.67,17.52Z"/></svg>